<svg width="18" height="16" viewBox="0 0 18 16" fill="none" xmlns="http://www.w3.org/2000/svg">
<path d="M9.08332 13.0592L8.99999 13.1425L8.90832 13.0592C4.94999 9.4675 2.33332 7.0925 2.33332 4.68416C2.33332 3.0175 3.58332 1.7675 5.24999 1.7675C6.53332 1.7675 7.78332 2.60083 8.22499 3.73416H9.77499C10.2167 2.60083 11.4667 1.7675 12.75 1.7675C14.4167 1.7675 15.6667 3.0175 15.6667 4.68416C15.6667 7.0925 13.05 9.4675 9.08332 13.0592ZM12.75 0.10083C11.3 0.10083 9.90832 0.77583 8.99999 1.83416C8.09166 0.77583 6.69999 0.10083 5.24999 0.10083C2.68332 0.10083 0.666656 2.10916 0.666656 4.68416C0.666656 7.82583 3.49999 10.4008 7.79166 14.2925L8.99999 15.3925L10.2083 14.2925C14.5 10.4008 17.3333 7.82583 17.3333 4.68416C17.3333 2.10916 15.3167 0.10083 12.75 0.10083Z" fill="#EA4C1A"/>
</svg>
